PathFileType	3	(X/Y/Z)	C:\Users\koon_\Desktop\
DataRate	CameraRate	NumFrames	NumMarkers	Units	OrigDataRate	OrigDataStartFrame	OrigNumFrames
100.0	100.0	10	27	mm	100.0	1688	2700	
Frame#	Time	get:LFHD			get:RFHD			get:LBHD			get:RBHD			get:C7			get:T10			get:CLAV			get:STRN			get:RBAK			get:LSHO			get:LUPA			get:LELB			get:LFRA			get:LWRA			get:LWRB			get:LFIN			get:RSHO			get:RUPA			get:RELB			get:RFRA			get:RWRA			get:RWRB			get:RFIN			get:LASI			get:RASI			get:LPSI			get:RPSI			
		X1	Y1	Z1	X2	Y2	Z2	X3	Y3	Z3	X4	Y4	Z4	X5	Y5	Z5	X6	Y6	Z6	X7	Y7	Z7	X8	Y8	Z8	X9	Y9	Z9	X10	Y10	Z10	X11	Y11	Z11	X12	Y12	Z12	X13	Y13	Z13	X14	Y14	Z14	X15	Y15	Z15	X16	Y16	Z16	X17	Y17	Z17	X18	Y18	Z18	X19	Y19	Z19	X20	Y20	Z20	X21	Y21	Z21	X22	Y22	Z22	X23	Y23	Z23	X24	Y24	Z24	X25	Y25	Z25	X26	Y26	Z26	X27	Y27	Z27	
1688	16.87	76.505646	1561.1737	-28.735142	-64.912132	1559.452	-30.83996	54.872341	1556.9056	-189.76534	-74.217651	1530.5812	-195.62273	3.6590967	1345.0433	-207.6407	-1.678314	1138.1221	-235.37968	6.7128887	1274.3335	-8.8439522	10.773568	1080.9659	41.842438	-78.368362	1274.2189	-229.00533	115.88876	1350.4243	-129.93231	256.83676	1313.6267	-111.39973	413.26917	1246.8417	-62.306938	416.57578	1201.2013	83.468231	430.69376	1141.322	147.9998	503.72046	1180.9014	128.84149	476.45789	1158.9885	226.61674	-114.1381	1353.5231	-115.07629	-293.50211	1227.6669	-59.147091	-372.16473	1133.5555	-76.383446	-376.11411	1199.3501	-6.2472467	-418.01892	1207.0123	140.52795	-486.26263	1177.2749	105.29442	-481.1618	1255.1073	176.27061	131.03497	891.47888	0.070593946	-132.45851	878.89081	-5.9136395	45.709835	955.75409	-213.95485	-44.283939	953.76337	-218.4984
1689	16.88	76.558372	1560.9819	-29.30167	-64.846741	1559.5131	-31.332701	54.908966	1556.865	-190.30353	-74.253883	1530.7745	-196.11852	3.2521148	1344.9567	-207.99533	-1.7422811	1138.0504	-235.64775	6.5578885	1274.244	-8.7232914	10.955224	1080.9769	41.49485	-79.29702	1273.8677	-229.44427	115.92759	1350.4403	-130.15878	256.06213	1311.8815	-109.477	411.1481	1241.1115	-57.835361	415.85773	1188.8497	85.93705	430.1507	1125.4532	146.84912	503.45117	1164.8594	128.86969	478.26059	1136.7058	225.80168	-114.67935	1353.269	-115.29726	-292.63235	1227.0225	-57.061283	-370.01682	1131.9224	-72.727005	-374.05399	1200.3036	-4.5433426	-416.80057	1216.5481	139.36642	-484.49268	1184.9688	105.71178	-480.19342	1266.6733	171.62622	131.33278	891.52521	-0.21061133	-132.20186	878.97302	-6.0611701	45.935478	955.76788	-214.22493	-44.031734	953.84296	-218.84465
1690	16.89	76.625938	1560.7677	-29.75477	-64.819229	1559.5847	-31.821646	54.89024	1556.7611	-190.82765	-74.34005	1530.999	-196.59953	2.7653253	1344.9047	-208.3398	-1.8204062	1137.9987	-235.93317	6.4308929	1274.2352	-9.0745697	11.099977	1080.9426	41.118896	-80.237045	1273.615	-229.91328	115.93217	1350.4738	-130.47737	255.39017	1309.9237	-107.69144	408.68167	1234.6936	-53.431782	414.88303	1176.2117	88.012711	429.50708	1109.825	145.17732	503.03662	1148.8311	128.04448	480.04691	1114.9178	223.6113	-115.26186	1352.9911	-115.58417	-291.68213	1226.2671	-54.947571	-367.60419	1130.0156	-69.057983	-372.47885	1201.7351	-6.9152555	-415.31952	1225.8109	137.36687	-483.25116	1192.2537	104.99152	-479.11884	1277.7944	166.28409	131.65126	891.55597	-0.49774563	-131.94421	879.03333	-6.2423205	45.96006	955.87726	-214.40623	-43.815815	953.81335	-219.09802
1691	16.9	76.738251	1560.5006	-30.354183	-64.726089	1559.7146	-32.238979	54.840748	1556.6793	-191.35217	-74.480026	1531.2457	-196.95219	2.206681	1344.7632	-208.50096	-1.935378	1137.9479	-236.16264	6.306201	1274.2	-9.374032	11.333117	1080.9504	40.839123	-81.086739	1273.4224	-230.16405	115.94822	1350.4969	-130.63959	254.68004	1307.6228	-105.77494	405.93442	1227.7048	-49.235004	413.63348	1163.3706	89.725021	428.79626	1093.7399	142.71616	502.35855	1132.9965	126.37919	481.23087	1093.6779	220.68739	-115.88582	1352.7191	-115.7222	-290.58514	1225.3604	-52.670361	-365.01172	1128.0004	-65.398521	-370.01428	1202.3617	-7.1001282	-413.69269	1234.8025	134.50996	-481.32913	1199.047	104.45217	-477.79703	1288.4054	160.25195	131.97643	891.59613	-0.77796251	-131.59372	879.04987	-6.4505568	46.367695	955.77948	-214.79095	-43.592937	953.7923	-219.28389
1692	16.91	76.853722	1560.2645	-30.942377	-64.639526	1559.8125	-32.63467	54.72776	1556.6339	-191.8609	-74.642654	1531.5249	-197.37718	1.563975	1344.6786	-208.6852	-2.0473437	1137.9589	-236.48512	6.1414533	1274.1605	-9.5494108	11.605919	1080.8812	40.498264	-81.859291	1273.1992	-230.09969	115.8661	1350.4512	-130.62923	253.92651	1304.9205	-103.6931	402.96036	1220.2762	-45.684669	412.08615	1150.4934	90.633507	427.67737	1078.3761	139.79062	501.37509	1117.759	124.04584	481.84637	1073.3962	216.57991	-116.5416	1352.3278	-115.67895	-289.43814	1224.3499	-50.737694	-362.34824	1125.9001	-61.821301	-367.37048	1202.8033	-8.1502275	-411.80038	1243.3425	130.97487	-478.65961	1205.5372	103.66615	-475.98111	1298.5198	153.41193	132.2972	891.60773	-1.0551534	-131.20268	879.05231	-6.5382419	46.559196	955.76776	-214.99078	-43.414333	953.79419	-219.50122
1693	16.92	76.864784	1560.0895	-31.499058	-64.584373	1559.9631	-32.988785	54.602505	1556.5709	-192.39098	-74.829346	1531.7024	-197.72742	0.98928249	1344.6039	-208.75406	-2.2105527	1137.9154	-236.80045	5.9985857	1274.158	-9.7964687	11.832722	1080.7943	40.247345	-82.454117	1272.84	-229.8277	115.81994	1350.2732	-130.37399	253.01805	1301.7847	-101.24206	399.87482	1212.6122	-42.898678	410.24353	1137.8566	90.610306	425.38028	1064.6349	138.68643	499.94632	1103.3671	121.34419	481.58899	1054.0625	211.76147	-117.26791	1351.9299	-115.7064	-288.2641	1223.354	-49.094917	-359.57309	1123.9036	-58.381367	-364.51721	1203.085	-9.4978609	-409.57913	1251.3417	127.1195	-476.56049	1212.5109	101.28486	-473.78339	1308.0443	145.98743	132.62447	891.61676	-1.3219968	-130.84352	879.11371	-6.7264199	46.721149	955.76959	-215.2616	-43.19553	953.77386	-219.68648
1694	16.93	76.878563	1560.0366	-32.031212	-64.547318	1560.1111	-33.393261	54.435333	1556.4089	-192.87473	-75.063835	1531.762	-198.03081	0.60610878	1344.4926	-208.71445	-2.4050212	1137.79	-236.90761	5.8129206	1273.9579	-9.6242361	12.065686	1080.8693	40.178486	-82.941254	1272.4792	-229.52769	115.89387	1350.108	-129.91281	251.76624	1298.4171	-98.553673	396.65799	1204.7389	-41.218086	408.17676	1125.7395	89.759155	424.7988	1049.4858	131.50629	498.09979	1089.8165	118.409	480.92752	1035.9714	206.5387	-117.93872	1351.606	-115.84767	-287.07471	1222.3373	-47.350559	-356.87894	1121.9954	-55.003208	-361.51666	1203.2277	-10.73455	-407.28485	1258.9058	122.71821	-473.92041	1218.8334	99.062683	-471.26132	1316.7832	138.34337	133.0117	891.60773	-1.5840647	-130.45132	879.12567	-6.8746223	46.960464	955.75305	-215.41	-42.991592	953.8183	-219.88052
1695	16.94	76.883102	1560.0804	-32.496037	-64.535477	1560.3368	-33.752247	54.279369	1556.1656	-193.3972	-75.255814	1531.6664	-198.42218	0.37872756	1344.3817	-208.57619	-2.7068653	1137.7543	-237.10268	5.6174483	1273.8289	-9.4939556	12.335298	1080.4583	39.491581	-83.388298	1272.0885	-229.14922	116.23063	1349.9178	-129.40152	250.56169	1294.7737	-96.116257	393.52441	1196.8077	-40.565544	405.84171	1114.1021	88.186928	422.59885	1036.3201	127.49395	495.94931	1077.1201	115.12987	479.8829	1019.2753	200.95837	-118.52869	1351.3083	-116.0025	-285.91071	1221.3845	-46.033375	-354.11606	1120.432	-51.968513	-358.44821	1203.2476	-12.071826	-404.5101	1265.6398	118.41628	-471.10175	1224.7147	96.511787	-468.3765	1324.7056	130.58972	133.44313	891.59991	-1.8495402	-130.06252	879.18658	-6.9609857	47.114433	955.73804	-215.60281	-42.804371	953.80103	-219.99571
1696	16.95	76.870728	1560.2001	-33.006474	-64.569771	1560.5162	-34.142273	54.091141	1555.8779	-193.84637	-75.441582	1531.425	-198.69565	0.27404901	1344.2434	-208.38214	-3.0546653	1137.6366	-237.15222	5.4230413	1273.6254	-9.4686146	12.507445	1080.3147	39.311615	-83.763199	1271.788	-228.76047	116.81171	1349.6875	-128.99188	249.81912	1291.0569	-94.069054	390.6463	1188.9175	-40.372906	403.43848	1103.0913	86.218491	420.40219	1023.9728	123.13535	493.81564	1065.1249	111.48879	478.51212	1004.3011	195.16179	-119.03432	1351.0546	-116.23764	-284.67841	1220.5652	-44.663773	-351.5672	1119.1014	-49.202053	-355.41037	1203.2654	-13.410105	-401.80939	1271.7593	113.93921	-468.47159	1230.1744	93.852303	-465.72781	1331.7935	123.4888	133.83582	891.58575	-2.0771625	-129.7404	879.21881	-7.1419225	47.275951	955.72668	-215.78351	-42.643391	953.8244	-220.14304
1697	16.96	76.820396	1560.3861	-33.533474	-64.64241	1560.7242	-34.50219	53.932415	1555.5826	-194.31757	-75.601555	1531.1544	-198.99664	0.35401434	1344.1278	-208.22227	-3.4242301	1137.5483	-237.28389	5.2995772	1273.4047	-9.4185781	12.622616	1080.1681	39.172848	-83.967743	1271.515	-228.46945	117.73997	1349.4574	-128.58702	249.62775	1287.2358	-92.4953	388.13058	1181.413	-40.560467	401.1734	1092.5377	84.04847	417.96335	1012.6285	118.89464	491.59317	1053.5708	107.43085	476.74896	990.74811	189.57042	-119.35062	1350.8016	-116.23342	-283.51123	1220.0073	-43.931694	-349.31326	1118.1592	-46.878368	-352.59839	1203.4443	-14.791123	-399.18265	1277.2916	109.53331	-465.86642	1235.1239	91.265739	-462.87595	1338.0813	116.75726	134.13855	891.56329	-2.2596087	-129.41014	879.2298	-7.1662254	47.39603	955.74615	-215.85823	-42.526051	953.76636	-220.15977
